# xmcd
#
# Track frame offsets: 
#        150
#        13670
#        33002
#        53460
#        74812
#        96170
#        107797
#        124982
#        140912
#        156635
#        176735
#        195947
#        210450
#
# Disc length: 2897 seconds
#
# Revision: 0
# Processed by: cddbd v1.4PL0 Copyright (c) Steve Scherf et al.
# Submitted via: ExactAudioCopy v0.95a3
#
DISCID=bc0b4f0d
DTITLE=Vykki Vox - Can You Feel It?
DYEAR=1999
DGENRE=
TTITLE0=We (Oui)
TTITLE1=Freedom
TTITLE2=Never Gonna Fail
TTITLE3=Purple Funk
TTITLE4=Hannah's New Age Daydream
TTITLE5=Get Rhythm
TTITLE6=On Our Way
TTITLE7=Woman's Touch
TTITLE8=I Just Want To Celebrate
TTITLE9=Interpretation
TTITLE10=Turn It Around
TTITLE11=On Your Side
TTITLE12=Celebrate Slight Return
EXTD=
EXTT0=
EXTT1=
EXTT2=
EXTT3=
EXTT4=
EXTT5=
EXTT6=
EXTT7=
EXTT8=
EXTT9=
EXTT10=
EXTT11=
EXTT12=
PLAYORDER=
